PathFileType	4	(X/Y/Z)	D:\TRACE\v60_Jaco2_6-2-23\JustBodyDRS_Motion2_6-platform.trc
DataRate	CameraRate	NumFrames	NumMarkers	Units	OrigDataRate	OrigDataStartFrame	OrigNumFrames
100.00	100.00	      36	5	mm	100.00	1686	      6741
Frame#	Time	Left_Front			Right_Front			Left_Aft			Right_Aft			Post			
		X1	Y1	Z1	X2	Y2	Z2	X3	Y3	Z3	X4	Y4	Z4	X5	Y5	Z5	

1686	16.850	-782.61462	61.87112	-624.28998	787.15558	62.19649	-629.37769	-690.67273	-29.06557	506.90475	751.67108	-31.99839	516.42303	4.19480	1381.72363	-841.47906	
1687	16.860	-783.49744	60.61393	-624.41974	786.52496	61.41741	-629.46179	-691.57861	-28.72318	506.83838	750.66772	-31.24064	516.30414	2.88830	1380.45374	-843.42407	
1688	16.870	-784.71259	59.56126	-624.79480	785.55182	60.29621	-629.86578	-692.77197	-27.88077	506.65637	749.44501	-30.53780	516.06146	1.62999	1379.45764	-845.92120	
1689	16.880	-785.91382	59.05096	-625.14716	784.42938	59.44077	-629.95728	-693.81323	-27.32689	506.44705	748.66296	-30.07864	515.98505	0.56549	1378.13269	-848.50745	
1690	16.890	-786.94928	57.90710	-625.41443	783.34460	58.41203	-630.40955	-694.93970	-26.46349	506.28491	747.74969	-29.39183	515.85480	-0.21083	1376.86560	-851.14294	
1691	16.900	-787.69287	57.05446	-625.57690	782.07666	57.74066	-630.77112	-696.10809	-25.69669	506.25668	746.52850	-28.91657	515.34998	-1.14385	1375.57800	-853.83472	
1692	16.910	-788.94220	56.04740	-626.07990	781.10938	56.70468	-631.06726	-697.98920	-24.11576	505.30823	745.49841	-27.28992	515.90826	-2.18494	1374.37256	-856.50739	
1693	16.920	-790.39282	55.17030	-626.22473	780.13721	55.69181	-631.25513	-698.17206	-24.58770	505.82370	743.67169	-26.91661	515.64832	-3.24773	1373.15723	-859.03223	
1694	16.930	-791.20502	53.76696	-626.45007	778.93579	54.62798	-631.65277	-698.97845	-24.11192	505.66159	742.83685	-26.35505	515.41858	-4.16544	1371.55835	-861.47644	
1695	16.940	-792.19165	52.81325	-626.83002	777.80841	53.47808	-631.90277	-700.55225	-23.05692	505.14758	741.72943	-25.48911	515.21106	-5.27489	1370.05225	-863.46832	
1696	16.950	-793.24695	51.87378	-627.14630	776.76697	52.40890	-632.34375	-701.55182	-22.53697	505.09808	740.73914	-24.65717	515.07965	-6.53137	1368.78101	-865.39215	
1697	16.960	-794.53998	51.13604	-627.49023	775.64069	51.36484	-632.69708	-702.42639	-21.82809	505.23380	739.50781	-23.80688	515.11914	-7.89124	1367.40771	-867.48706	
1698	16.970	-795.69690	49.99262	-627.84589	774.55029	50.51380	-632.78998	-703.35297	-20.67584	506.22726	738.11096	-22.87182	514.79279	-9.33431	1365.77698	-869.69147	
1699	16.980	-796.77374	48.48299	-628.10162	773.37061	49.42148	-633.24420	-704.88513	-19.78043	505.13458	737.37701	-22.17420	514.37933	-10.36294	1364.39526	-871.66858	
1700	16.990	-797.72009	47.40307	-628.51813	772.58789	48.22133	-633.55994	-705.90625	-19.07386	504.74817	736.04150	-21.50533	514.05817	-11.20421	1362.70276	-874.16290	
1701	17.000	-799.10425	46.54308	-628.90802	771.23041	47.08601	-633.74585	-707.01898	-18.40844	504.60153	735.31635	-20.59324	513.86945	-12.55705	1361.33911	-876.74091	
1702	17.010	-800.22168	45.17300	-629.01202	769.83575	45.72223	-634.24329	-708.41492	-17.36086	504.25171	733.79266	-19.63622	513.91797	-13.46608	1359.70093	-879.80658	
1703	17.020	-801.01251	44.00636	-629.33411	768.83606	44.79129	-634.52264	-709.27496	-16.72704	504.07559	733.02539	-18.54803	513.80664	-14.72410	1357.94727	-883.00812	
1704	17.030	-802.23175	42.84076	-629.92035	767.72913	43.47527	-634.93152	-710.29626	-15.43365	503.84824	731.65857	-17.86646	513.00500	-15.80696	1356.60120	-886.65265	
1705	17.040	-803.69568	41.59965	-630.13623	766.69385	42.31121	-635.35754	-711.41107	-15.06539	503.62924	730.60626	-16.91307	512.63953	-16.53718	1354.46680	-889.58917	
1706	17.050	-804.85571	40.11024	-630.50458	765.44647	41.00628	-635.61536	-712.80695	-13.90728	503.33871	729.55505	-15.98436	512.68060	-17.54325	1352.68579	-892.54181	
1707	17.060	-805.74451	39.15275	-630.97827	764.35162	39.58429	-635.96094	-713.42657	-13.68410	503.25024	728.19537	-14.94475	512.72192	-19.10450	1351.06030	-895.44684	
1708	17.070	-806.63934	37.82178	-631.52814	763.36566	38.44048	-636.38251	-715.04742	-12.28710	502.68744	727.44568	-13.87619	512.55792	-20.59645	1349.44678	-898.25226	
1709	17.080	-808.01483	36.44135	-631.48608	762.16864	37.35321	-636.73615	-715.98914	-11.53508	502.42181	726.08691	-12.92824	512.24854	-21.72328	1347.72290	-900.95172	
1710	17.090	-809.38318	35.08316	-631.97748	760.95343	35.84104	-637.01050	-717.32190	-10.54415	502.04193	724.97723	-12.04849	511.89139	-22.29887	1345.66553	-903.48297	
1711	17.100	-810.32129	33.59660	-632.43744	759.89972	34.68449	-637.51288	-718.25488	-9.63536	501.89011	723.75879	-11.23633	511.51019	-23.70162	1343.93103	-906.02136	
1712	17.110	-811.28345	32.41995	-632.79675	758.78644	33.26835	-637.69861	-719.98132	-7.82608	500.93002	722.84589	-10.14094	511.24292	-25.07552	1342.07996	-908.90448	
1713	17.120	-812.74127	31.07246	-633.09961	757.46027	31.82217	-638.10089	-720.81854	-7.43586	501.14856	721.45514	-9.12646	511.26218	-26.12992	1340.25024	-911.77240	
1714	17.130	-813.85736	29.94301	-633.57184	756.31403	30.64150	-638.55505	-721.88306	-6.57089	500.96292	720.44739	-8.08166	510.90921	-27.16400	1338.18286	-914.78571	
1715	17.140	-814.96637	28.34483	-633.57648	755.30902	29.34608	-638.79596	-723.40216	-5.36035	500.90152	719.32666	-7.33267	510.52985	-28.27654	1336.50964	-917.86420	
1716	17.150	-815.94666	26.86139	-634.03870	754.15125	27.81826	-639.19391	-724.09222	-4.68270	500.51535	718.00800	-6.45676	510.10596	-29.61808	1334.31140	-921.39172	
1717	17.160	-816.91895	25.88047	-634.53607	752.84454	26.46310	-639.70624	-725.43286	-3.69232	500.29749	717.26483	-5.28262	509.85767	-30.71960	1332.43335	-924.59241	
1718	17.170	-818.34674	24.25978	-634.75732	752.10193	25.20181	-639.90552	-726.40582	-2.78531	500.08398	716.15106	-4.29046	509.73654	-31.82685	1330.53430	-928.07239	
1719	17.180	-819.27515	22.73877	-635.34076	750.79535	23.61786	-640.28552	-727.38574	-1.83732	499.76987	715.13666	-3.15629	509.40231	-33.09621	1328.45398	-931.37390	
1720	17.190	-820.45026	21.46978	-635.59467	749.59778	22.20486	-640.71942	-728.67639	-0.77452	499.38498	713.54590	-2.27932	508.91077	-34.01545	1326.44507	-934.26599	
1721	17.200	-821.36475	19.90037	-635.74475	748.70282	21.03152	-640.98407	-729.70630	0.16325	499.10699	712.55469	-1.30729	508.52310	-35.12544	1324.49402	-937.23761	
